# xmcd
#
# Track frame offsets:
#	150
#	10165
#	22500
#	32629
#	42610
#	53702
#	65821
#	75805
#	85630
#	97087
#	109206
#	120949
#	133861
#	144414
#	154169
#	165036
#	178658
#	192442
#	205115
#	217145
#	226731
#	237285
#	248696
#	261610
#
# Disc length: 3609 seconds
#
# Revision: 0
# Processed by: cddbd v1.5.1PL0 Copyright (c) Steve Scherf et al.
# Submitted via: dBpowerAMP V4.0
#
DISCID=3b0e1718
DTITLE=Dave Dudley - Truck Drinin' Son of a Gun
DYEAR=2004
DGENRE=Country
TTITLE0=Last day in the mines
TTITLE1=Mad
TTITLE2=Two six packs away
TTITLE3=Truck drivin' son of a gun
TTITLE4=What we're fighting for
TTITLE5=Viet Nam blues
TTITLE6=Lonelyville
TTITLE7=Long time gone
TTITLE8=My kind of love
TTITLE9=Trucker's prayer
TTITLE10=Anything leaving town today
TTITLE11=There ain't no easy run
TTITLE12=I keep coming back for more
TTITLE13=Please let me prove (my love for you)
TTITLE14=One more mile
TTITLE15=George (and the north woods)
TTITLE16=The pool shark
TTITLE17=This night (ain't fit for nothing but drinking)
TTITLE18=Listen Betty (I'm singing your song)
TTITLE19=Comin' down
TTITLE20=Fly away again
TTITLE21=If it feels good do it
TTITLE22=You've got to cry girl
TTITLE23=Keep on truckin'
EXTD=Mercury Hit Singles 1963-1973
EXTT0=
EXTT1=
EXTT2=
EXTT3=
EXTT4=
EXTT5=
EXTT6=
EXTT7=
EXTT8=
EXTT9=
EXTT10=
EXTT11=
EXTT12=
EXTT13=
EXTT14=
EXTT15=
EXTT16=
EXTT17=
EXTT18=
EXTT19=
EXTT20=
EXTT21=
EXTT22=
EXTT23=
PLAYORDER=
